<?xml version="1.0" standalone="no"?>
<svg xmlns="http://www.w3.org/2000/svg" viewBox="0 0 136.272 36" width="136.272" height="36"><g fill="#305699" color="#305699" transform="translate(0 4) scale(0.5833334)"><svg width="48.0" height="48.0" x="0.0" y="0.0" viewBox="0 0 48 48"><g><g><g><path fill="currentColor" d="M31.9,18H2.5c-1.1,0-2-0.9-2-2s0.9-2,2-2h29.4c1.1,0,2,0.9,2,2S33,18,31.9,18z"></path></g><g><path fill="currentColor" d="M31.9,18c-1.1,0-2-0.9-2-2s0.9-2,2-2c3,0,5.4-2.2,5.4-4.8c0-2.7-2.4-4.8-5.4-4.8c-3,0-5.4,2.2-5.4,4.8     c0,1.1-0.9,2-2,2s-2-0.9-2-2c0-4.8,4.2-8.7,9.3-8.7s9.3,3.9,9.3,8.7S37,18,31.9,18z"></path></g></g><g><g><path fill="currentColor" d="M31.9,33.9H2.5c-1.1,0-2-0.9-2-2s0.9-2,2-2h29.4c1.1,0,2,0.9,2,2S33,33.9,31.9,33.9z"></path></g><g><path fill="currentColor" d="M31.9,47.5c-1.1,0-2-0.9-2-2s0.9-2,2-2c3,0,5.4-2.2,5.4-4.8c0-2.7-2.4-4.8-5.4-4.8c-1.1,0-2-0.9-2-2     s0.9-2,2-2c5.1,0,9.3,3.9,9.3,8.7S37,47.5,31.9,47.5z"></path></g></g><g><path fill="currentColor" d="M38.5,26.3H2.5c-1.1,0-2-0.9-2-2c0-1.1,0.9-2,2-2h36.1c1.1,0,2,0.9,2,2C40.5,25.4,39.6,26.3,38.5,26.3z"></path></g><g><path fill="currentColor" d="M38.5,26.3c-1.1,0-2-0.9-2-2c0-1.1,0.9-2,2-2c2.8,0,5-1.8,5-4c0-1.1,0.9-2,2-2s2,0.9,2,2    C47.5,22.8,43.5,26.3,38.5,26.3z"></path></g></g></svg></g><path fill="#0b005d" fill-rule="nonzero" d="M18.22 17.40L12.60 17.40L11.90 15.07L6.12 15.07L5.42 17.40L0 17.40L6.02 0.89L12.19 0.89L18.22 17.40ZM8.98 5.50L7.22 11.38L10.80 11.38L9.07 5.50L8.98 5.50ZM24.82 3.24L20.04 3.24L20.04 0L24.82 0L24.82 3.24ZM24.82 17.40L20.04 17.40L20.04 4.73L24.82 4.73L24.82 17.40ZM35.57 4.42Q36.12 4.42 36.55 4.55Q36.98 4.68 36.98 4.70L36.98 4.70L36.98 8.71L35.45 8.71Q33.96 8.71 33.30 9.48Q32.64 10.25 32.64 11.76L32.64 11.76L32.64 17.40L27.86 17.40L27.86 4.73L31.78 4.73L32.09 6.65Q32.52 5.54 33.46 4.98Q34.39 4.42 35.57 4.42L35.57 4.42ZM46.94 0.60Q46.78 1.85 45.79 3.71Q44.81 5.57 43.45 7.43Q42.10 9.29 40.92 10.49L40.92 10.49L45.67 10.49L45.67 7.06Q46.42 6.00 47.18 4.56Q47.95 3.12 48.19 2.18L48.19 2.18L50.23 2.18L50.23 10.49L52.54 10.49L52.54 14.02L50.23 14.02L50.23 17.40L45.67 17.40L45.67 14.02L37.63 14.02L37.63 10.44Q38.93 8.57 40.20 5.90Q41.47 3.24 42.24 0.60L42.24 0.60L46.94 0.60ZM65.11 10.99L65.11 17.40L59.81 17.40L59.81 10.99L53.26 0.89L59.35 0.89L62.52 6.38L62.62 6.38L65.78 0.89L71.57 0.89L65.11 10.99ZM77.71 4.44Q81.05 4.44 82.96 6.13Q84.86 7.82 84.86 11.06L84.86 11.06Q84.86 14.30 82.96 16.00Q81.05 17.69 77.71 17.69L77.71 17.69Q74.38 17.69 72.48 16.01Q70.58 14.33 70.58 11.06L70.58 11.06Q70.58 7.80 72.48 6.12Q74.38 4.44 77.71 4.44L77.71 4.44ZM77.71 7.68Q75.36 7.68 75.36 10.39L75.36 10.39L75.36 11.76Q75.36 14.45 77.71 14.45L77.71 14.45Q80.09 14.45 80.09 11.76L80.09 11.76L80.09 10.39Q80.09 7.68 77.71 7.68L77.71 7.68ZM100.27 17.40L96.36 17.40L96.05 15.48Q95.30 16.51 94.09 17.10Q92.88 17.69 91.54 17.69L91.54 17.69Q89.33 17.69 88.22 16.46Q87.12 15.24 87.12 12.94L87.12 12.94L87.12 4.73L91.90 4.73L91.90 12.36Q91.90 13.18 92.32 13.67Q92.74 14.16 93.50 14.16L93.50 14.16Q94.39 14.16 94.94 13.58Q95.50 13.01 95.50 12.17L95.50 12.17L95.50 4.73L100.27 4.73L100.27 17.40Z" transform="translate(36, 9.3)"></path></svg>